#!OML:ASF F:\VICON\USERDATA\INSTALL\rory3\rory3.ASF
:FULLY-SPECIFIED
:DEGREES
3833
root -11.3701 17.9577 2.21284 -5.67882 6.4368 -719.16
lowerback 26.5543 1.10543 -0.839373
upperback 4.01648 1.77911 4.72797
thorax -10.463 0.976462 5.20751
lowerneck -8.36566 0.217157 -2.98328
upperneck 28.8818 2.09817 -3.93253
head 10.6669 0.236962 -0.64782
rclavicle -7.15625e-015 -3.18055e-014
rhumerus -20.73 1.24272 -79.0418
rradius 91.7389
rwrist 4.35038
rhand -18.7701 9.67234
rfingers 7.12502
rthumb 7.52702 -20.1737
lclavicle -7.15625e-015 -3.18055e-014
lhumerus -42.6969 11.2557 74.1179
lradius 41.751
lwrist 3.47144
lhand 171.202 -130.819
lfingers 7.12502
lthumb -162.86 3138.44
rfemur -18.9642 -3.5834 15.6111
rtibia 43.3839
rfoot -8.22898 -14.3851
rtoes -0.863124
lfemur -9.90057 -11.8815 -12.6945
ltibia 58.8926
lfoot -1.3962 -3.53144
ltoes -22.7839
3834
root -11.3426 17.9368 2.11001 -5.84401 6.88241 -719.267
lowerback 26.6312 1.0297 -0.800343
upperback 4.04437 1.70155 4.79124
thorax -10.4643 0.940612 5.28496
lowerneck -8.73033 0.190457 -3.33819
upperneck 29.1143 2.13678 -3.82594
head 10.8261 0.219049 -0.545043
rclavicle -2.38542e-014 -1.11319e-014
rhumerus -20.4743 1.33833 -79.6734
rradius 89.4438
rwrist 5.24567
rhand -19.0169 10.2002
rfingers 7.12502
rthumb 7.2888 -19.6543
lclavicle -2.38542e-014 -1.11319e-014
lhumerus -42.2216 11.275 74.6809
lradius 42.2384
lwrist 3.1529
lhand 171.148 -130.39
lfingers 7.12502
lthumb -162.911 3138.88
rfemur -19.1195 -3.76308 15.5122
rtibia 43.5078
rfoot -8.13304 -14.4772
rtoes -0.833749
lfemur -9.46175 -12.5605 -12.1175
ltibia 58.6436
lfoot -0.977007 -4.00369
ltoes -23.5049
3835
root -11.318 17.9107 2.01022 -5.97657 7.00723 -719.384
lowerback 26.7543 1.10898 -0.830698
upperback 3.97816 1.80715 4.84046
thorax -10.6175 0.996042 5.32507
lowerneck -9.1021 0.170715 -3.46253
upperneck 29.6016 2.19005 -3.83531
head 11.0882 0.212993 -0.524069
rclavicle -2.10712e-014 -2.06736e-014
rhumerus -20.6269 1.32282 -80.4685
rradius 86.8091
rwrist 6.21183
rhand -20.2324 11.0563
rfingers 7.12502
rthumb 6.11544 -18.8354
lclavicle -2.10712e-014 -2.06736e-014
lhumerus -41.9726 11.0617 75.2624
lradius 42.8795
lwrist 2.96574
lhand 171.085 -130.28
lfingers 7.12502
lthumb -162.972 3138.99
rfemur -19.395 -3.58405 15.47
rtibia 43.6149
rfoot -7.87946 -14.6707
rtoes -1.54246
lfemur -9.02419 -12.8434 -11.4895
ltibia 58.3964
lfoot -0.73377 -4.58591
ltoes -23.9029
3836
root -11.2906 17.8804 1.91528 -5.86896 7.22349 -718.936
lowerback 26.5782 1.25077 -1.39912
upperback 3.84081 1.81511 4.69021
thorax -10.6946 1.02278 5.484
lowerneck -9.16472 0.0925572 -3.74367
upperneck 29.724 2.1125 -3.6995
head 11.1453 0.159912 -0.436045
rclavicle -3.73715e-014 -3.02153e-014
rhumerus -20.8049 1.52307 -81.2482
rradius 83.3224
rwrist 6.51454
rhand -21.7549 13.5223
rfingers 7.12502
rthumb 4.64541 -16.4068
lclavicle -3.73715e-014 -3.02153e-014
lhumerus -41.728 10.5923 75.7855
lradius 43.4539
lwrist 3.02325
lhand 171.066 -129.928
lfingers 7.12502
lthumb -162.99 3139.35
rfemur -19.8456 -3.62269 14.766
rtibia 43.7328
rfoot -7.5025 -14.6044
rtoes -1.89907
lfemur -8.72418 -13.2006 -11.5609
ltibia 58.0606
lfoot -0.404556 -5.16814
ltoes -23.6226
3837
root -11.2588 17.8561 1.81203 -5.89987 7.84456 -719.072
lowerback 26.58 1.10861 -1.3242
upperback 3.6607 1.66248 4.70914
thorax -10.8838 0.956621 5.5204
lowerneck -8.76774 -0.034496 -3.65934
upperneck 29.939 1.9053 -3.70397
head 11.1478 0.0762456 -0.479036
rclavicle -9.54166e-015 -1.59028e-015
rhumerus -20.9419 1.72293 -81.8444
rradius 80.049
rwrist 7.54731
rhand -22.6767 14.8272
rfingers 7.12502
rthumb 3.75533 -15.1194
lclavicle -9.54166e-015 -1.59028e-015
lhumerus -41.1954 10.7015 76.2072
lradius 43.3412
lwrist 2.60381
lhand 170.877 -129.699
lfingers 7.12502
lthumb -163.172 3139.59
rfemur -20.1 -4.08502 14.6605
rtibia 43.8074
rfoot -7.38456 -14.6376
rtoes -1.67812
lfemur -8.56017 -13.9093 -10.9507
ltibia 57.7064
lfoot -0.00685197 -5.94041
ltoes -23.1438
3838
root -11.2246 17.8357 1.70876 -6.08046 8.46394 -719.16
lowerback 26.6078 0.961002 -1.29636
upperback 3.7575 1.4869 4.78125
thorax -10.7695 0.872794 5.64759
lowerneck -9.19345 0.00928994 -4.03156
upperneck 30.1537 2.02269 -3.48482
head 11.3142 0.103493 -0.321525
rclavicle 2.06736e-014 -6.83819e-014
rhumerus -20.4834 2.03786 -82.2634
rradius 76.5908
rwrist 8.8951
rhand -23.2698 15.393
rfingers 7.12502
rthumb 3.18258 -14.563
lclavicle 2.06736e-014 -6.83819e-014
lhumerus -40.7061 10.3239 77.1114
lradius 44.4385
lwrist 2.86868
lhand 170.89 -128.984
lfingers 7.12502
lthumb -163.16 3140.31
rfemur -20.1617 -4.37141 14.5043
rtibia 43.8535
rfoot -7.14658 -14.9249
rtoes -2.05163
lfemur -8.16994 -14.6129 -10.4774
ltibia 57.2578
lfoot 0.510906 -6.878
ltoes -23.2153
